<?xml version="1.0" encoding="UTF-8"?>
<svg id="Layer_2" data-name="Layer 2" xmlns="http://www.w3.org/2000/svg" viewBox="0 0 73.46 110.26">
  <defs>
    <style>
      .cls-1 {
        fill: #1d1d1b;
      }
    </style>
  </defs>
  <g id="Layer_1-2" data-name="Layer 1">
    <g>
      <g>
        <path class="cls-1" d="M41.51,110.26h-9.55v-9.55h9.55v9.55ZM34.96,107.26h3.55v-3.55h-3.55v3.55Z"/>
        <path class="cls-1" d="M41.31,102.96l-2.61-1.48,26.54-46.7,1.81-3.24c2.25-4.58,3.41-9.58,3.41-14.81,0-18.6-15.13-33.73-33.73-33.73S3,18.13,3,36.73c0,5.42,1.31,10.8,3.8,15.57l1.42,2.47,26.54,46.71-2.61,1.48L4.17,53.74C1.43,48.49,0,42.63,0,36.73,0,16.48,16.48,0,36.73,0s36.73,16.48,36.73,36.73c0,5.69-1.26,11.14-3.76,16.2l-1.85,3.31-26.54,46.71Z"/>
        <path class="cls-1" d="M23.05,11.88l-2.78-1.12c1.29-3.19,2.93-6.09,4.89-8.62l2.37,1.84c-1.79,2.31-3.3,4.97-4.48,7.9Z"/>
        <path class="cls-1" d="M21.19,17.69l-2.91-.71c.21-.87.45-1.74.71-2.59l2.87.87c-.24.79-.46,1.61-.66,2.43Z"/>
        <path class="cls-1" d="M19.8,26.54l-2.99-.24c.06-.73.13-1.46.21-2.18l2.98.34c-.08.69-.15,1.39-.2,2.09Z"/>
        <path class="cls-1" d="M34.54,102.86c-.19-.4-18.69-40.02-17.95-72.16l3,.07c-.72,31.43,17.48,70.43,17.67,70.82l-2.71,1.28Z"/>
        <path class="cls-1" d="M52.85,19.34c-1.27-6.09-3.53-11.26-6.71-15.36l2.37-1.84c3.47,4.47,5.92,10.05,7.28,16.59l-2.94.61Z"/>
        <path class="cls-1" d="M53.67,24.46c-.06-.51-.12-1.01-.19-1.51l2.97-.42c.07.53.14,1.06.2,1.59l-2.98.34Z"/>
        <path class="cls-1" d="M56.37,44.6l-2.98-.35c.53-4.49.77-8.77.71-12.72l3-.04c.05,4.08-.19,8.49-.73,13.11Z"/>
        <path class="cls-1" d="M39.13,102.86l-2.71-1.28c.13-.27,12.72-27.2,16.57-54.24l2.97.42c-3.92,27.5-16.69,54.82-16.82,55.1Z"/>
      </g>
      <rect class="cls-1" x="22.05" y="80.64" width="29.36" height="3"/>
      <rect class="cls-1" x="35.23" y="44.43" width="3" height="4.97"/>
      <rect class="cls-1" x="35.23" y="39.38" width="3" height="1.66"/>
      <rect class="cls-1" x="35.23" y="11.32" width="3" height="11.42"/>
      <rect class="cls-1" x="35.23" y="52.16" width="3" height="8.14"/>
    </g>
  </g>
</svg>